<?xml version="1.0" encoding="UTF-8"?>
<svg width="24px" height="24px" viewBox="0 0 24 24" version="1.1" xmlns="http://www.w3.org/2000/svg" xmlns:xlink="http://www.w3.org/1999/xlink">
    <!-- Generator: Sketch 63.1 (92452) - https://sketch.com -->
    <title>github</title>
    <desc>Created with Sketch.</desc>
    <g id="Page-1" stroke="none" stroke-width="1" fill="none" fill-rule="evenodd">
        <path d="M12,0 C5.383,0 0,5.383 0,12 C0,17.576 3.95,22.5 9.392,23.708 C9.54,23.739 9.694,23.704 9.813,23.61 C9.931,23.515 10,23.372 10,23.22 L10,20.5 C10,20.224 9.776,20 9.5,20 L8.5,20 C7.252,20 6.403,18.817 5.653,17.774 C5.576,17.667 5.5,17.56 5.423,17.456 C5.778,17.644 6.083,17.871 6.384,18.094 C6.983,18.538 7.603,18.997 8.427,18.997 C8.43,18.997 8.434,18.997 8.437,18.997 C8.501,19.004 9.085,19.064 9.537,18.667 C9.749,18.48 10,18.127 10,17.5 L10,17.151 C10,16.927 9.852,16.731 9.636,16.67 C6.863,15.885 5,13.807 5,11.5 C5,10.3 5.493,9.155 6.425,8.188 C6.569,8.039 6.606,7.818 6.519,7.63 C6.147,6.828 6.226,5.737 6.667,5.082 C7.251,5.309 8.008,5.786 8.5,6.37 C8.635,6.531 8.857,6.589 9.054,6.517 C10.929,5.829 13.072,5.829 14.947,6.517 C15.146,6.589 15.367,6.53 15.501,6.37 C15.993,5.786 16.75,5.309 17.333,5.081 C17.775,5.736 17.854,6.828 17.481,7.63 C17.394,7.818 17.431,8.039 17.575,8.188 C18.507,9.155 19,10.3 19,11.5 C19,13.922 16.93,16.091 13.967,16.774 C13.816,16.809 13.689,16.912 13.625,17.053 C13.561,17.194 13.565,17.357 13.638,17.494 C13.885,17.964 14,18.601 14,19.5 L14,23.22 C14,23.372 14.069,23.515 14.187,23.61 C14.277,23.682 14.387,23.72 14.5,23.72 C14.536,23.72 14.572,23.716 14.608,23.708 C20.05,22.5 24,17.576 24,12 C24,5.383 18.617,0 12,0 L12,0 Z" id="github" fill="#000000" fill-rule="nonzero"></path>
    </g>
</svg>